<svg xmlns="http://www.w3.org/2000/svg" xmlns:xlink="http://www.w3.org/1999/xlink" viewBox="0,0,256,256" width="64px" height="64px"><defs><linearGradient x1="32" y1="10" x2="32" y2="54" gradientUnits="userSpaceOnUse" id="color-1"><stop offset="0" stop-color="#000000"></stop><stop offset="0.699" stop-color="#000000"></stop></linearGradient><linearGradient x1="32.06998" y1="6.14769" x2="32.07136" y2="84.38875" gradientUnits="userSpaceOnUse" id="color-2"><stop offset="0" stop-color="#000000"></stop><stop offset="0.695" stop-color="#000000"></stop></linearGradient></defs><g fill="none" fill-rule="none" stroke="none" stroke-width="1" stroke-linecap="butt" stroke-linejoin="miter" stroke-miterlimit="10" stroke-dasharray="" stroke-dashoffset="0" font-family="none" font-weight="none" font-size="none" text-anchor="none" style="mix-blend-mode: normal"><g transform="scale(4,4)"><path d="M32,10c-12.15,0 -22,9.85 -22,22c0,12.15 9.85,22 22,22c12.15,0 22,-9.85 22,-22c0,-12.15 -9.85,-22 -22,-22zM42.75,18.62l-3.24,9.63l-1.51,5.75c0,0 -3,7 -3.92,10.88c-0.46,1.93 -2.7,7.5 -2.7,7.5h-0.38c0,0 -0.55,-3.42 -2,-8.38c-0.39,-1.35 -1.37,-3.16 -1.8,-4.63c-0.44,-1.48 -1.76,-4.87 -2.2,-6.37c0,-3 -2.65,-10.16 -3.12,-11.75c-1.13,-3.75 -3.44,-3.44 -3.44,-3.44l1.56,-1.81h7c0.08,0 0.11,0.13 0.11,0.3c0,0.25 -0.06,0.59 -0.11,0.7c-0.72,1.53 -0.86,3.27 -0.38,4.89l5.38,18.11l5.98,-19.91c0.32,-1.05 0.01,-2.19 -0.8,-2.93l-0.18,-0.16l1,-1h6c0.99,0 1,0.96 1,1z" fill="url(#color-1)" fill-rule="evenodd"></path><path d="M15.542,52.039c-7.555,-6.238 -11.262,-16.512 -8.643,-26.604c3.6,-13.876 17.82,-22.236 31.697,-18.635v0c6.724,1.746 12.364,6.003 15.884,11.988c3.519,5.986 4.496,12.985 2.752,19.709c-3.599,13.877 -17.819,22.236 -31.696,18.636c-3.786,-0.982 -7.161,-2.754 -9.994,-5.094zM47.346,13.443c-2.666,-2.202 -5.805,-3.812 -9.252,-4.706v0c-12.81,-3.324 -25.935,4.392 -29.259,17.2c-3.323,12.81 4.393,25.937 17.202,29.26c12.81,3.323 25.935,-4.394 29.258,-17.202c1.611,-6.207 0.708,-12.668 -2.539,-18.193c-1.444,-2.457 -3.276,-4.598 -5.41,-6.359zM38.345,7.768l0.008,0.006zM27.293,50.357l0.008,0.006z" fill="url(#color-2)" fill-rule="nonzero"></path></g></g></svg>